<svg xmlns="http://www.w3.org/2000/svg" width="800" height="800" viewBox="0 0 800 800"><defs><radialGradient id="a" cx="263.9526" cy="1534.2939" r="60.8363" gradientUnits="userSpaceOnUse"><stop offset="0" stop-color="#fff"/><stop offset="1" stop-color="#2e3192"/></radialGradient></defs><path fill="url(#a)" stroke="#002c62" stroke-width=".9419" d="M311.818 1584.164c-2.13 20.987-35.824 21.391-35.692 26.567.125-5.177-33.988-7.436-36.379-26.303-.088-.711 0-70.405 0-70.405h72.071z" transform="matrix(5.54958 0 0 5.54958 -1130.3681 -8329.5759)"/><path fill="#fff" d="M407.853 315.0969c.9212 0 1.676-.7548 1.676-1.6704 0-.899-.7603-1.6594-1.676-1.6594-.938 0-1.6705.7603-1.6705 1.6594 0 .9156.7326 1.6704 1.6705 1.6704z"/><path fill="#e2af24" stroke="#000" stroke-width="3.580589016" d="M565.7718 435.1731c-9.512 93.9544-160.3828 95.7635-159.7557 118.9441.5716-23.1806-152.1972-33.303-162.8913-117.751-.3662-3.191 0-143.0126 0-143.0126h322.647z"/><path fill="#ed1c24" stroke="#000" stroke-width="3.580589016" d="M243.0416 120.8833h160.011V293.686h-160.011z"/><path fill="#2e3192" stroke="#000" stroke-width="3.580589016" d="M403.2801 120.8833h162.1865V293.686H403.28z"/><path fill="none" stroke="#000" stroke-width="3.580589016" d="M565.8106 434.8956c-9.4953 94.0044-160.3828 95.7636-159.7945 118.972.616-23.214-152.1528-33.3253-162.8524-117.7954-.4107-3.1633 0-315.194 0-315.194h322.647z"/><g stroke="#000" stroke-width=".1595"><path fill="#bfbfbf" d="M261.211 292.9652c.5937-.1776 1.4761-1.3486 1.6315-1.7537 1.4928-2.9801 1.5927-6.3154 2.697-9.3954 1.8425-5.1 7.1035-6.7983 10.128-11.0603 4.534-6.4708 8.8627-12.3756 15.5167-15.944 3.3075-1.7592 7.8415-.0666 10.25 3.3298 1.8425 2.5306 3.3908 4.8558 5.189 7.3865 1.8757 2.7193 4.6949 4.2731 6.8592 6.8037 6.0213 7.0036 10.0503 14.9673 17.3147 20.6445h-69.5862z" stroke-width=".8851580099999999"/><path fill="#bfbfbf" d="M326.0577 292.9652c4.1234-4.079 6.5319-17.4978 13.0637-18.9463 3.1855-7.3088 7.3532-14.0682 13.3967-19.2792 2.2865-2.02 5.2888-4.4785 8.4687-3.0523 1.454.6438 3.413 1.3763 4.1067 2.7859 1.5982 3.2631.6937 7.3865 2.3252 10.4388 1.3874 2.5306 4.5285 3.9624 6.6318 6.2599 2.1532 2.4196 2.4751 5.8215 4.9225 8.1745 4.0845 4.0845 8.169 9.8783 12.4366 13.6187 1.121 1.0433-1.0267-1.182 0 0z" stroke-width=".8851580099999999"/><path d="M290.9788 293.065c-.3662-3.1576-.1165-7.4919 1.9202-9.9892 1.4318-1.7092 3.8015-2.0311 5.6162-1.0377 3.6738 1.9146 3.7348 7.1867 4.9003 11.0214h-12.4367zM351.5858 293.065c2.5362-4.6949-2.7803-16.7597 4.6117-14.8673 5.927 1.4762 6.6428 9.1291 6.715 14.8674z" stroke-width=".8851580099999999"/></g><path stroke="#000" stroke-width=".8851580099999999" d="M278.9751 272.8701c1.7759-2.0644 4.7726-2.0644 6.493-4.2065 2.3253-3.019 3.3908-6.2433 3.019-10.0614 1.6371 1.6316 1.3097 4.0456 2.3697 5.9158-1.6316.394-5.0058-.061-4.7782 2.3919-.4384-1.8147 1.465-2.9968 1.2264-4.756M299.4753 263.1528c2.8802 1.615 4.7781 4.3065 6.8592 6.7816 1.2265 1.4984.1665 3.1633-2.12 3.3131 2.614-.3496 5.1834.1166 7.0037 1.9424 1.3652 1.3208 2.5306 4.14.627 5.6106-.6492.555-2.3474-.0888-2.6138.3607-.7547 1.1488-.7936 3.474 0 4.312 2.242 2.2865 4.2898 5.0169 7.4975 6.1434 2.4862.8325 5.1611-.6104 5.4497-2.3918.9379-6.3599-7.3255-8.0025-10.2279-13.0083M296.1955 255.439c2.2586 3.0244 1.7314 7.4752.6715 10.5497-.8602 2.4529-3.2687-.666-4.0457-2.3253-.899-1.8647.161-4.0623 1.221-5.6606.9378-1.4096 3.2686-1.282 3.929-3.141M363.2677 267.709c-.4163 1.282.283 2.5362.8324 3.4352 1.4096 2.2976-.4273-2.2032-1.4706-.1443-.6327 1.3264-3.857 1.0212-5.2943 2.2476-.9823.8491.2441 2.2476 1.6204 2.5695 2.3642.5105 4.756-.2054 7.0425.3884 1.637.3774 2.8136 2.8803.616 3.8737-.494.2497-1.3486-.1388-1.6372.1664-.3052.3441-.3052 1.3708-.0222 1.5317 2.7138 1.7925 5.7383 1.848 8.8017 2.12 2.7359.2663 4.3286 2.4862 5.9658 4.5728-3.5573.899-7.6363-2.3697-10.411.3052-.333.3108 1.5483 2.17 2.1643 2.2865 5.1.7547 10.2279 1.2264 15.3945.9878-.1054-.7215.5716-1.4151.4329-1.6815-2.1921-3.574-5.7827-5.1278-9.29-7.3255-4.3675-2.7137-7.4364-6.3764-10.3722-10.311-4.0012-5.3887-3.8014-2.675-5.311-9.7174-.4883-2.2087-3.8402-5.4441-5.0667-3.8403-1.2653 1.7814 2.4307 3.0245 4.2288 4.3509"/><path fill="gray" stroke="#000" stroke-width=".8851580099999999" d="M304.7807 203.2507h40.7172v48.026h-40.7172z"/><g fill="gray" stroke="#000" stroke-width=".1595"><path d="M301.4343 258.136h47.4988l3.5906-3.3908h-55.3349zM300.0025 251.1214h49.985v3.5794h-49.985z" stroke-width=".8851580099999999"/></g><g fill="gray" stroke="#000" stroke-width=".1595"><path d="M300.0025 201.0092h47.8595v2.2365h-47.8595zM297.9214 191.652h52.0661v9.2346h-52.0661z" stroke-width=".8851580099999999"/></g><path fill="gray" stroke="#000" stroke-width=".8851580099999999" d="M302.5386 182.1351h9.229v14.1292h-9.229zM335.8583 182.1351h9.19v14.1292h-9.19zM314.4258 170.2307h19.024v26.0275h-19.024z"/><path d="M306.7008 205.6148h2.3919v2.3697h-2.3919zM311.6455 205.4705h2.3475v2.3752h-2.3475zM316.3848 205.4705h2.3641v2.3752h-2.364zM321.2851 205.6148h2.3697v2.3697h-2.3697zM326.1798 205.4705h2.3919v2.3752h-2.3919zM330.9414 205.4705h2.3863v2.3752h-2.3863zM335.5309 205.6148h2.4085v2.3697h-2.4085zM340.4367 205.4705h2.4085v2.3752h-2.4085zM306.7008 210.0933h2.3919v2.3641h-2.3919zM311.6455 209.9435h2.3475v2.3752h-2.3475zM316.3848 209.9435h2.3641v2.3752h-2.364zM321.2851 210.0933h2.3697v2.3641h-2.3697zM326.1798 209.9435h2.3919v2.3752h-2.3919zM330.9414 209.9435h2.3863v2.3752h-2.3863zM335.5309 210.0933h2.4085v2.3641h-2.4085zM340.4367 209.9435h2.4085v2.3752h-2.4085zM306.7008 215.1717h2.3919v2.3697h-2.3919zM311.6455 214.9825h2.3475v2.3974h-2.3475zM316.3848 214.9825h2.3641v2.3974h-2.364zM321.2851 215.1717h2.3697v2.3697h-2.3697zM326.1798 214.9825h2.3919v2.3974h-2.3919zM330.9414 214.9825h2.3863v2.3974h-2.3863zM335.5309 215.1717h2.4085v2.3697h-2.4085zM340.4367 214.9825h2.4085v2.3974h-2.4085zM306.7008 219.6053h2.3919v2.3974h-2.3919zM311.6455 219.461h2.3475v2.3808h-2.3475zM316.3848 219.461h2.3641v2.3808h-2.364zM321.2851 219.6053h2.3697v2.3974h-2.3697zM326.1798 219.461h2.3919v2.3808h-2.3919zM330.9414 219.461h2.3863v2.3808h-2.3863zM335.5309 219.6053h2.4085v2.3974h-2.4085zM340.4367 219.461h2.4085v2.3808h-2.4085zM306.7008 224.9773h2.3919v2.3475h-2.3919zM311.6455 224.8108h2.3475v2.3863h-2.3475zM316.3848 224.8108h2.3641v2.3863h-2.364zM321.2851 224.9773h2.3697v2.3475h-2.3697zM326.1798 224.8108h2.3919v2.3863h-2.3919zM330.9414 224.8108h2.3863v2.3863h-2.3863zM335.5309 224.9773h2.4085v2.3475h-2.4085zM340.4367 224.8108h2.4085v2.3863h-2.4085zM306.7008 229.423h2.3919v2.3697h-2.3919zM311.6455 229.2616h2.3475v2.3863h-2.3475zM316.3848 229.2616h2.3641v2.3863h-2.364zM330.9414 229.2616h2.3863v2.3863h-2.3863zM335.5309 229.423h2.4085v2.3697h-2.4085zM340.4367 229.2616h2.4085v2.3863h-2.4085zM306.7008 234.467h2.3919v2.392h-2.3919zM311.6455 234.3228h2.3475v2.3974h-2.3475zM316.3848 234.3228h2.3641v2.3974h-2.364zM330.9414 234.3228h2.3863v2.3974h-2.3863zM335.5309 234.467h2.4085v2.392h-2.4085zM340.4367 234.3228h2.4085v2.3974h-2.4085zM306.7008 238.94h2.3919v2.3697h-2.3919zM311.6455 238.784h2.3475v2.3642h-2.3475zM316.3848 238.784h2.3641v2.3642h-2.364zM330.9414 238.784h2.3863v2.3642h-2.3863zM335.5309 238.94h2.4085v2.3697h-2.4085zM340.4367 238.784h2.4085v2.3642h-2.4085zM306.7008 243.7021h2.3919v2.3863h-2.3919zM311.6455 243.5517h2.3475v2.3697h-2.3475zM316.3848 243.5517h2.3641v2.3697h-2.364zM330.9414 243.5517h2.3863v2.3697h-2.3863zM335.5309 243.7021h2.4085v2.3863h-2.4085zM340.4367 243.5517h2.4085v2.3697h-2.4085zM306.7008 248.1468h2.3919v2.414h-2.3919zM311.6455 248.0302h2.3475v2.3864h-2.3475zM316.3848 248.0302h2.3641v2.3864h-2.364zM330.9414 248.0302h2.3863v2.3864h-2.3863zM335.5309 248.1468h2.4085v2.414h-2.4085zM340.4367 248.0302h2.4085v2.3864h-2.4085z"/><g transform="matrix(5.54958 0 0 5.54958 -1130.3681 -8329.5759)"><path d="M261.361 1542.545h1.608v3.645h-1.608z"/><ellipse cx="262.175" cy="1542.574" rx=".813" ry=".493"/></g><g><path d="M317.7278 172.3173h2.3475v2.3697h-2.3475zM322.5892 172.1786h2.4086v2.3863h-2.4086zM327.3674 172.1786h2.3919v2.3863h-2.3919zM321.2851 184.2267h5.6328v12.198h-5.6328zM305.9905 193.9002h2.3474v2.3641h-2.3474zM338.7163 193.9002h2.3308v2.3641h-2.3308zM337.6175 183.3222h1.2043v1.2042h-1.2043zM340.1093 183.2778h1.182v1.1487h-1.182zM342.4734 183.2778h1.1876v1.1487h-1.1876zM304.0481 183.3222h1.1654v1.2042h-1.1654zM306.4788 183.2778h1.1987v1.1487h-1.1987zM308.8651 183.2778h1.1877v1.1487h-1.1877z"/></g><g fill="gray" stroke="#000" stroke-width=".1595"><path d="M326.0189 158.3047h4.4507v2.1088h-4.4507v4.7948l7.4309 5.0224h-19.024l6.8593-4.7171v-5.1001h-4.4563v-2.1088h4.4563v-4.7172h4.7338zM281.4225 165.2083c2.2476-.3274 3.2631-2.0977 5.938-2.0977 1.8203 0 7.6196 4.7449 7.6196 4.7449-5.6717-5.322-2.12-15.6165-2.12-15.6165s6.9426 2.869 8.0414 4.756c1.3485 2.253-1.06 6.271 2.8192 9.0902 0 0-3.5961-2.059-1.4707-9.2512.7326-2.4917 4.3065-2.3863 4.6173-1.1654.2886 1.1654.2886 2.1088.2886 2.1088.8935.8713 1.2209-.6104 2.6527.8713.4717.4329 0 .4329-.1221 1.7592-.161 1.2487-2.9857-.4495-2.9857.605 0 .899-.3219 2.0921.8824 2.6915 1.2042.5771 2.9857 0 3.6183 1.4984.5716 1.4706.5716 4.756 2.0423 5.6328 1.9201 1.1321 1.1876 3.413 1.1876 3.413s-3.0024-.96-4.4341-1.3208c-2.8359-.7548-.5106 5.9158-.899 7.0979-.877 2.6971-4.1845 1.515-4.4453.333-.3108-1.2043 1.7315-7.281.2608-7.7195-1.021-.3274-3.7126-.9434-4.0012.5716-.283 1.4762-.6105 3.5351-.283 4.756.5716 2.2032-4.7172 3.2465-4.0013 1.1876 1.898-5.6439.7326-5.0445.5716-5.9436-.2442-1.4928-10.411 3.3908-15.7663-1.5095-1.5928-1.4318.899-3.2465 2.3696-3.2465 1.5206 0-2.3807-3.2465-2.3807-3.2465zM366.1812 165.2083c-2.2254-.3274-3.2687-2.0977-5.9436-2.0977-1.7925 0-7.5974 4.7449-7.5974 4.7449 5.6606-5.322 2.1033-15.6165 2.1033-15.6165s-6.9259 2.869-8.069 4.756c-1.3098 2.253 1.0654 6.271-2.797 9.0902 0 0 3.5739-2.059 1.4872-9.2512-.7714-2.4917-4.3231-2.3863-4.6283-1.1654-.3053 1.1654-.3053 2.1088-.3053 2.1088-.8601.8713-1.1876-.6104-2.6527.8713-.4495.4329 0 .4329.1554 1.7592.1277 1.2487 2.9802-.4495 2.9802.605 0 .899.2663 2.0921-.8935 2.6915-1.2043.5771-2.9857 0-3.5906 1.4984-.5772 1.4706-.5772 4.756-2.0478 5.6328-1.9146 1.1321-1.2209 3.413-1.2209 3.413s3.0245-.96 4.4508-1.3208c2.8191-.7548.5327 5.9158.899 7.0979.8935 2.6971 4.1622 1.515 4.4896.333.283-1.2043-1.8203-7.281-.3274-7.7195 1.0433-.3274 3.7182-.9434 4.0012.5716.3274 1.4762.6493 3.5351.3274 4.756-.6104 2.2032 4.7338 3.2465 4.0013 1.1876-1.9202-5.6439-.7548-5.0445-.616-5.9436.2886-1.4928 10.4332 3.3908 15.783-1.5095 1.5705-1.4318-.899-3.2465-2.3697-3.2465-1.4762 0 2.3808-3.2465 2.3808-3.2465z" stroke-width=".8851580099999999"/></g><g><path fill="#bfbfbf" stroke="#000" stroke-width="1.4323465979999999" d="M500.1647 212.13l5.6938-3.9846.2054-.161c2.1643 2.0257 4.251 4.2733 6.21 6.7206l-.0889.383-3.9235 4.534c1.5927 1.6926.738.8324 3.2243 4.8614l6.3931-2.0256c1.4485 2.303 1.8536 4.3286 2.8414 6.8426l-5.927 2.5473c.9268 2.6194 1.1488 5.2055 1.3763 5.5995l6.8593.7103c.1998 3.1688.1388 6.21-.1831 9.1901l-5.988.3663c-.1443 2.3253-.1221 1.121-1.2265 5.7105l5.9048 3.1633c-.6604 2.6749-1.798 4.3564-2.9024 6.7871l-5.9603-2.4307c-1.2209 2.464-2.8969 4.4896-3.0634 4.8947l4.3065 5.3942c-2.1477 2.353-4.3952 4.423-6.6983 6.2655l-4.473-4.0012c-1.7537 1.526-.838.677-4.9447 3.1244l1.8813 6.4097c-2.3252 1.4096-4.3508 1.7537-6.8592 2.6971l-2.4474-5.9658c-2.6138.8103-5.2221 1.0045-5.6384 1.182l-.8546 6.8594c-3.1688.1165-6.2044 0-9.168-.3497l-.244-6.0268c-2.3476-.1332-1.1211-.0999-5.694-1.3652l-3.2853 5.8493c-2.6416-.7215-4.312-1.8647-6.7372-3.0523l2.5917-5.9214c-2.4308-1.2875-4.4064-3.019-4.817-3.18l-5.4886 4.1845c-2.3142-2.1866-4.3509-4.4508-6.149-6.815l4.2899-4.2342c-1.4318-1.837-.6327-.8769-2.8137-5.1112l-6.5318 1.4984c-1.2487-2.4307-1.4928-4.4286-2.2476-7.0202l6.0879-2.0645c-.6548-2.7193-.7159-5.2887-.8546-5.7438l-6.8038-1.2598c.1054-3.1466.4329-6.21.9379-9.129l6.0046.1165c.3108-2.3086.222-1.121 1.6982-5.6106l-5.6384-3.6183c.8602-2.575 2.1643-4.2121 3.4685-6.5374l5.7216 2.9024c1.4651-2.3308 3.3076-4.19 3.4685-4.6117l-3.8459-5.7216c2.3309-2.1477 4.7172-4.0456 7.1867-5.716l.1832.183 5.0001 4.7949z"/><g stroke="#000"><path fill="gray" stroke-width=".8846030519999999" d="M480.1584 237.4527c12.431 0 22.5202-7.514 22.5202-16.8263 0-9.2456-10.0891-16.7986-22.5202-16.7986-12.431 0-22.5257 7.553-22.5257 16.7986 0 9.3122 10.0891 16.8263 22.5257 16.8263zM480.1584 259.0905c9.6563 0 17.459-4.7948 17.459-10.7994 0-5.9547-7.8027-10.8384-17.459-10.8384-9.6562 0-17.459 4.8837-17.459 10.8384 0 6.0046 7.7972 10.7994 17.459 10.7994z"/><path fill="gray" stroke-width=".8846030519999999" d="M480.1584 268.608c5.1 0 9.2512-2.1476 9.2512-4.7393 0-2.6416-4.1456-4.7782-9.2512-4.7782-5.1056 0-9.2511 2.1422-9.2511 4.7782 0 2.5917 4.1455 4.7394 9.2511 4.7394z"/><path fill="none" stroke-width=".8851580099999999" d="M480.2195 276.3664c2.2032 0 4.0012-1.7648 4.0012-3.979 0-2.2143-1.798-3.968-4.0012-3.968-2.2088 0-4.0013 1.7537-4.0013 3.968 0 2.2142 1.7925 3.979 4.0013 3.979z"/></g><path fill="#bfbfbf" stroke="#000" stroke-width="1.790294508" d="M474.8641 194.9596l5.3554 74.4643 4.9391-74.4643z"/><path fill="#bfbfbf" stroke="#000" stroke-width="1.790294508" d="M480.3804 196.2471c5.7993 0 10.5331-4.7171 10.5331-10.533 0-5.7772-4.7393-10.4999-10.533-10.4999-5.8438 0-10.5332 4.7227-10.5332 10.4998 0 5.816 4.6894 10.5331 10.5331 10.5331z"/><path d="M424.474 177.4008h35.9779s5.0445 0 12.7807 17.2147c1.7148 3.857 10.6995 1.4929 13.6797.3497 2.9579-1.232 5.938-16.0938 10.9826-17.8919h33.6082s-5.9214 12.8029-30.9333 19.3514c-3.4907.8768-40.2678 1.171-44.0026.5772-24.3571-3.8625-28.5415-19.0295-32.0932-19.6011z"/><g fill="#fff"><path d="M480.3804 196.2471c-5.8437 0-10.3111-4.7171-10.533-10.533-.2054-5.2111 5.3497-10.8828 10.694-10.067 2.2087.333 3.2298 5.6384-1.06 6.493-2.242.4329-4.4286 1.5983-4.2843 5.3775.1165 4.1345 5.1833 8.7295 5.1833 8.7295zM453.143 179.2987c2.2643 0 8.491 1.1987 10.289 3.4296 1.7537 2.242 5.533 7.714 5.6328 8.5963.161 1.393-.8935 2.6916-3.1022.9157-1.898-1.504-4.5728-6.16-4.9225-7.0035-1.4873-3.2465-7.897-5.938-7.897-5.938zM436.3223 180.6639c.6271 0 10.128.4995 10.9438.838.8546.3663-10.3722 1.8147-11.1491 1.565-2.0478-.7492-.8602-2.403.2053-2.403zM439.1137 185.2812c.555-.1388 9.906-2.1477 10.7662-2.0034.938.122-9.512 4.434-10.411 4.373-2.131-.1831-1.4096-2.1033-.3552-2.3696zM449.7523 190.9972c.3663-.2664 5.7216-4.251 6.332-4.3897.616-.161-4.817 5.5718-5.3886 5.7827-1.4318.5105-1.515-.9435-.9434-1.393zM442.7487 188.5055c.555-.2886 9.451-3.6517 10.35-3.6739.899 0-8.7406 5.8604-9.6174 5.8992-2.1422.2054-1.6927-1.798-.7326-2.2253zM522.7903 179.2987c-.555 0-8.8627.4329-9.5841.7326-.7326.333 9.068 1.5705 9.7617 1.3651 1.7592-.6493.738-2.0977-.1776-2.0977zM520.3596 183.3222c-.5328-.1-8.6574-1.8592-9.4288-1.737-.7769.122 8.3244 3.8846 9.0847 3.818 1.8758-.1664 1.2376-1.8147.344-2.081zM511.0307 188.3667c-.283-.2497-5.0057-3.696-5.5329-3.8403-.5328-.1387 4.2232 4.8836 4.7338 5.0446 1.2265.444 1.3041-.8214.7991-1.2043zM517.1353 186.1358c-.4662-.2053-8.2523-3.18-9.0236-3.2021-.7992 0 7.6306 5.1666 8.4131 5.2221 1.8536.1055 1.5095-1.6315.6105-2.02zM507.7398 179.2987c-2.242 0-8.4964 1.1987-10.2944 3.4296-1.7537 2.242-5.5108 7.714-5.6329 8.5963-.1664 1.393.899 2.6916 3.1023.9157 1.8813-1.504 4.5728-6.16 4.9446-7.0035 1.4651-3.2465 7.8804-5.938 7.8804-5.938z"/></g><path fill="#bfbfbf" d="M563.9293 159.3424c-11.1047 13.3579-18.0916-1.7703-18.0916-1.7703-8.5297 15.722-17.4312.8824-17.4312.8824-11.743 13.0803-19.6844-1.1876-19.6844-1.1876-9.8394 13.0859-18.0694.5827-18.0694.5827-9.5342 11.8927-18.3969.2941-18.3969.2941-10.4942 11.9205-17.1482 0-17.1482 0-10.7828 12.7807-20.6278-.2941-20.6278-.2941-11.1047 12.5032-17.7642-.283-17.7642-.283-4.4507 5.6383-8.2466 8.0024-13.9627-.3053v3.7515c5.716 8.3355 9.512 5.938 13.9627.272 0 0 6.6595 12.825 17.7642.3052 0 0 9.845 13.0915 20.6278.3274 0 0 6.654 11.9039 17.1482 0 0 0 8.8627 11.5986 18.3969-.3274 0 0 8.2245 12.5199 18.0694-.5772 0 0 7.947 14.257 19.6844 1.2154 0 0 8.9015 14.8396 17.4312-.9434 0 0 6.987 15.167 18.0916 1.8202z"/></g><g><path fill="gray" stroke="#000" stroke-width="1.790294508" d="M408.752 495.325l.4495-164.262s2.242-3.352 4.373-8.9792c1.9369-5.1056.0556-10.805-.9378-13.4355-2.7137-7.1257-4.0456-8.441-4.0456-8.441s-4.0845 6.8205-4.4952 7.9027c-1.2486 3.413-5.0834 9.29 1.5372 22.8698.999 2.02 1.9368 164.4895 1.9368 164.4895"/><path fill="#ed1c24" stroke="#000" stroke-width="1.7686511459999998" d="M309.7253 316.3844s-7.6584 6.7427-2.0866 26.7434c1.515 5.3887 3.5573 15.6332 23.8465 17.6865 3.2299.333 164.7781 128.001 164.7781 128.001l.899-1.4761L335.6141 356.974s1.182-12.0648-2.3697-18.8464c-1.7203-3.2909-6.9036-9.3732-10.866-9.7062-11.7984-.8935-11.471-10.0003-12.653-12.037z"/><path fill="gray" stroke="#000" stroke-width="1.790294508" d="M307.4389 485.53l195.767-146.9972 2.8191 4.4785-196.9101 145.521z"/><path fill="gray" stroke="#000" stroke-width="1.790294508" d="M508.267 399.3284s7.7584-35.3841-7.2644-55.2516c-12.8472-16.9318-43.4143-26.5436-53.2149-22.992 0 0 29.8956 15.9662 41.2057 31.172 3.1521 4.2566 9.351 12.0316 19.2736 47.0716z"/><g fill="#bfbfbf" stroke="#000" stroke-width=".4839"><path d="M327.3674 473.2321c10.006-32.3762 10.006-111.258 9.4343-112.1126-1.8535-2.7692 25.9498 4.312 40.3066-4.14 10.0003-5.8825 26.7656-5.5717 30.6115-5.5717v125.0597h-81.823z" stroke-width="2.685441762"/><path d="M488.061 473.2321c-10.0503-32.3762-10.0503-111.258-9.4343-112.1126 1.8592-2.7692-25.9331 4.312-40.3065-4.14-10.006-5.8825-26.8045-5.5717-30.606-5.5717v125.0597h81.812z" stroke-width="2.685441762"/></g><g stroke="#000" stroke-width=".3187"><path d="M325.8968 476.4675h81.823v-12.3589s-8.2744-6.776-13.5632-7.9414c-2.4474-.555-28.5248-4.4286-35.0012 2.6305-2.1643 2.3474-21.782 9.7228-29.1353 8.2522z" stroke-width="1.7686511459999998"/><path d="M489.5261 476.4675h-81.8119v-12.3589s8.2245-6.776 13.53-7.9414c2.4473-.555 28.5247-4.4286 35.0177 2.6305 2.1422 2.3474 21.7433 9.7228 29.1353 8.2522z" stroke-width="1.7686511459999998"/></g><path fill="none" stroke="#000" stroke-width=".859629942" d="M379.5557 418.4356c.3662 0 .6937-.3052.6937-.7159 0-.3663-.3275-.6881-.6937-.6881-.3608 0-.6937.3218-.6937.6881 0 .4107.3274.7159.6937.7159zM361.5473 393.019l6.0879-.3335M361.5473 394.4725l6.0879-.3496M361.5473 395.86l6.0879-.3053M362.2798 406.6094l6.088-.344M362.2798 408.0301l6.088-.3385M362.2798 409.4786l6.088-.3552M364.4275 420.5605l6.0602-.3934M364.4275 421.9707l6.0602-.3718M364.4275 423.4136l6.0602-.4052M355.3207 438.5861l6.0657-.3885M355.3207 439.9957l6.0657-.3496M355.3207 441.4441l6.0657-.389M347.6234 399.162l-4.0456-4.9614 5.1444-1.4984zM347.6234 414.4954l-4.0456-4.9447 5.1444-1.5095zM346.397 428.6857l-4.0402-4.9614 5.1667-1.5538zM339.41 447.7762l-4.0123-4.9391 5.161-1.5317zM419.4571 400.061l-1.7592 6.1267 5.3443-.616zM443.387 421.7043c2.1643.7159 19.9451-1.737 21.8042 0"/><g fill="none" stroke="#000" stroke-width=".1549"><path d="M431.1335 411.3543c.2441 1.4318-.3053 12.2923 1.1043 12.9028M428.231 413.8405c1.0045-2.2586 2.0645-1.526 2.8969.272 1.4928 2.2808 3.191 1.2875 3.191-.716" stroke-width=".859629942"/></g><path fill="none" stroke="#000" stroke-width=".859629942" d="M382.7023 390.671c-1.8425 0-3.291 1.3375-3.291 3.019 0 1.7148 1.454 3.0634 3.291 3.0634M379.4114 393.69h3.2909M433.0758 398.1186l-1.9867 6.0879 5.372-.4329zM452.061 404.1232l3.474-1.4096-3.0912-1.515M388.496 439.1522c-1.798 0-3.2853 1.354-3.2853 3.0467 0 1.7037 1.4873 3.0023 3.2853 3.0023M385.2107 442.1989h3.2853"/><g fill="none" stroke="#000" stroke-width=".1549"><path d="M440.773 429.4127c.2831 1.4318-.3107 12.2756 1.121 12.8639M437.8706 432.2152c1.0156-2.2864 2.0811-1.5705 2.897.3274 1.5039 2.2476 3.1798 1.2542 3.1798-.7547" stroke-width=".859629942"/></g><path fill="none" stroke="#000" stroke-width=".859629942" d="M385.9266 396.87c1.06 0 1.9201-1.0156 1.9201-2.281 0-1.2542-.8601-2.2697-1.9201-2.2697-1.0211 0-1.8758 1.0211-1.8758 2.2698-.0055 1.2708.8547 2.2808 1.8758 2.2808zM373.0627 411.3044c1.0433 0 1.9201-.999 1.9201-2.242 0-1.2376-.8768-2.281-1.9201-2.281-1.0212 0-1.9146 1.0434-1.9146 2.281-.0056 1.243.8934 2.242 1.9146 2.242zM369.6719 444.0136c1.0433 0 1.9035-.9767 1.9035-2.2587 0-1.2486-.8602-2.3086-1.9035-2.3086s-1.898 1.06-1.898 2.3086c0 1.282.8547 2.2587 1.898 2.2587zM392.0922 445.9782c1.0377 0 1.9201-.999 1.9201-2.2365 0-1.2875-.8824-2.292-1.9201-2.292-1.0434 0-1.9035 1.0045-1.9035 2.292.0055 1.2375.8601 2.2365 1.9035 2.2365zM454.4972 442.0601c1.0544 0 1.9146-1.021 1.9146-2.2864 0-1.2653-.8602-2.2698-1.9146-2.2698-1.0267 0-1.8813 1.01-1.8813 2.2698-.0056 1.2653.8546 2.2864 1.8813 2.2864zM450.0409 390.0883c1.06 0 1.8757-1.0544 1.8757-2.2753 0-1.2375-.8158-2.2531-1.8757-2.2531-1.06 0-1.8813 1.0211-1.8813 2.2531 0 1.221.8157 2.2753 1.8813 2.2753zM356.2752 386.864c1.06 0 1.9201-1.021 1.9201-2.2864 0-1.2486-.8546-2.2587-1.9201-2.2587-1.0156 0-1.8813 1.0156-1.8813 2.2587 0 1.2709.8657 2.2864 1.8813 2.2864zM357.4628 382.0082l1.9368 6.0823M371.4255 384.5388c1.0434.2053 2.07-.6327 2.3309-1.837.2441-1.2264-.3663-2.3918-1.3874-2.5971-1.0267-.222-2.0423.616-2.3309 1.8424-.2441 1.1876.3719 2.3863 1.3874 2.5917zM373.5899 379.9881l.6937 6.332M375.066 396.1207c-1.0044.3053-2.0977-.3884-2.4917-1.637-.3607-1.2099.122-2.3975 1.1488-2.7138 1.021-.3108 2.1199.3995 2.4917 1.6315.3607 1.1877-.172 2.3697-1.1487 2.7193zM372.491 391.7699l-.0776 6.3936"/><g fill="none" stroke="#000" stroke-width=".1549"><path d="M363.6894 385.2935l-3.4074.394-.6993-5.5551 3.3908-.7103M359.9546 382.8295l3.1854-.5605" stroke-width=".859629942"/></g><g fill="none" stroke="#000" stroke-width=".1549"><path d="M358.1565 398.3461l-3.3852.3663-.716-5.5385 3.4075-.7325M354.3939 395.86l3.2298-.5384" stroke-width=".859629942"/></g><g fill="none" stroke="#000" stroke-width=".1549"><path d="M360.4873 426.033l-3.3908.3607-.7159-5.5496 3.3908-.6992M356.7303 423.5634l3.2243-.571" stroke-width=".859629942"/></g><g fill="none" stroke="#000" stroke-width=".1549"><path d="M425.5783 443.1645l-3.3297.9157-1.5706-5.372 3.2244-1.2376M421.455 441.3054l3.08-1.0433" stroke-width=".859629942"/></g><g fill="none" stroke="#000" stroke-width=".1549"><path d="M398.1357 446.8328l-3.2854-.8103 1.2043-5.4552 3.424.4717M395.4774 443.1812l3.191.5943" stroke-width=".859629942"/></g><path fill="none" stroke="#000" stroke-width=".859629942" d="M378.701 390.671l-1.798 6.0824M439.6632 392.442l.738-6.2495M461.595 405.6105l2.8581-5.5052"/><g fill="none" stroke="#000" stroke-width=".1549"><path d="M367.2412 384.6886l-.1443-2.697M368.5287 383.2568h-2.858" stroke-width=".859629942"/></g><path fill="none" stroke="#000" stroke-width=".859629942" d="M380.2882 380.3155l1.6371 3.9402 1.7926-3.9402M385.477 381.7251l1.7149 2.6083M385.2329 384.4605l2.1643-2.6355M350.5203 425.3226l2.4085 1.7093M351.275 427.781l1.0045-3.0133"/><g fill="none" stroke="#000" stroke-width=".1549"><path d="M344.0717 443.9026l2.3863 1.687M344.7654 446.3278l1.0544-3.0245" stroke-width=".859629942"/></g><g fill="none" stroke="#000" stroke-width=".1549"><path d="M382.2528 444.1462l-.1665-2.702M383.518 442.731h-2.858" stroke-width=".859629942"/></g><g fill="none" stroke="#000" stroke-width=".1549"><path d="M437.621 422.459l-.161-3.3908M439.2192 420.677h-3.5573" stroke-width=".859629942"/></g><path fill="none" stroke="#000" stroke-width=".859629942" d="M429.3964 437.282l3.0357 5.1666 1.6149-5.8825M418.1474 439.4241c-1.06 1.9812.161 6.2266 3.0634 6.7594M379.0673 378.5952c-1.7204 1.5095-1.9645 5.9436.5328 7.4198"/><path fill="none" stroke="#000" stroke-width=".859629942" stroke-linecap="round" d="M394.7893 379.3166c1.6704 1.4873 1.9368 5.9603-.5716 7.4309"/><path fill="none" stroke="#000" stroke-width=".859629942" d="M435.3178 436.3052c1.6538 1.4707 1.9757 5.9103-.555 7.4365M400.5053 440.9391c1.6705 1.4929 1.959 5.9547-.5716 7.4365M463.715 390.671l1.2542-5.5218M462.816 384.7663l4.4563 1.0816M451.9166 385.6875s.3441 3.7349.161 4.8337c-.1221.8158-1.2487 2.292-3.019.677"/><g fill="none" stroke="#000" stroke-width=".1549"><path d="M453.8756 389.9718v-4.4952M455.8402 383.8845l-.1665 6.2482M458.6982 386.015l-2.6749 1.7975M458.171 390.1327l-1.2709-2.8469" stroke-width=".859629942"/></g><path fill="none" stroke="#000" stroke-width=".859629942" d="M435.3178 388.7287c.6937-.1887.8769.3052 1.0434-.738.2053-1.0767 1.798 4.0955 1.798 4.0955M441.7276 387.6243c.3663-.8768 1.9812-3.1854 2.7137-.7103.2276.899-2.1643 2.8525-1.9978 3.6017.161.677 2.3253 0 2.3253 0"/><g fill="none" stroke="#000" stroke-width=".1549"><path d="M424.596 402.5527l2.7582 2.0422M425.212 405.2448l1.4485-3.247" stroke-width=".859629942"/></g><g fill="none" stroke="#000" stroke-width=".1549"><path d="M423.3307 381.164l-1.4262-4.2165M423.253 374.7826l1.8148 5.9658M426.6605 375.8814l-1.9757 2.5584M427.4596 379.966l-2.1255-2.2865" stroke-width=".859629942"/></g><g fill="none" stroke="#000" stroke-width=".1549"><path d="M349.2328 386.1925l3.7792-1.7536M349.9487 388.1848l3.7348-1.7925" stroke-width=".859629942"/></g><g fill="none" stroke="#000" stroke-width=".1549"><path d="M430.3954 376.231l4.151-.1215M430.2566 378.351l4.14-.1776" stroke-width=".859629942"/></g><g fill="none" stroke="#000" stroke-width=".1549"><path d="M349.5824 375.6816l3.757-1.7647M350.2983 377.6573l3.757-1.8147" stroke-width=".859629942"/></g><g fill="none" stroke="#000" stroke-width=".1549"><path d="M447.8321 401.0599l2.4141 2.9579M447.9154 404.3952l2.2864-3.413" stroke-width=".859629942"/></g><path fill="none" stroke="#000" stroke-width=".859629942" d="M378.5345 439.979s.1665 4.634-.2053 5.1667c-.3663.5106-.5105.5106-1.06.716M378.7399 438.7082c.1776 0 .3274-.122.3274-.3108 0-.1887-.1498-.3496-.3274-.3496-.1665 0-.3274.161-.3274.3496 0 .1887.1609.3108.3274.3108zM421.2497 376.392c.1664 0 .2885-.1554.2885-.3052 0-.161-.122-.3053-.2885-.3053-.1832 0-.3275.1388-.3275.3053 0 .1442.1443.3052.3275.3052zM450.5292 373.9446c.1665 0 .3053-.1443.3053-.3496 0-.161-.1388-.3274-.3053-.3274-.1776 0-.3274.161-.3274.3274 0 .2053.1443.3496.3274.3496z"/><g fill="none" stroke="#000" stroke-width=".1549"><path d="M450.6513 379.0724v-4.4785M452.6103 373.0067l-.1665 6.2489M455.4684 375.1322l-2.6527 1.7925M454.9411 379.2556l-1.232-2.8803" stroke-width=".859629942"/></g><path fill="none" stroke="#000" stroke-width=".859629942" d="M446.3837 372.8847c-1.6982 1.5039-1.9424 5.938.555 7.4308M468.7207 385.7486c1.2709 1.859.4718 6.2599-2.3474 7.059M456.3896 377.0907l1.9368.1837M426.5606 441.4108l1.7537-.5544M445.6678 438.5473h3.9236M445.6678 440.5057h3.9236"/><g fill="none" stroke="#000" stroke-width=".1549"><path d="M457.8436 399.4005l-.3718 5.4936M457.8436 401.7147c1.4262-.555 1.9812-1.4151 2.4917-.3885.5716 1.1044.222 3.9846.222 3.9846" stroke-width=".859629942"/></g><path fill="none" stroke="#000" stroke-width=".859629942" d="M467.683 404.5727l-3.7626-.5105 3.5517-3.2243-1.06 5.1666"/><g fill="none" stroke="#000" stroke-width=".1549"><path d="M449.7356 415.9827l-.1054 3.7398M452.122 416.0276l-.0833 3.751M448.8533 415.9716l4.251-.2325" stroke-width=".859629942"/></g><path fill="none" stroke="#000" stroke-width=".859629942" d="M438.8918 372.641l.3274 6.0652M442.9763 372.641l.3662 6.0652M443.176 375.3098l-3.9568.1887M435.8284 376.7805h1.9812M374.2447 422.8309l2.1255.1615"/><g fill="none" stroke="#000" stroke-width=".1549"><path d="M363.8726 439.585l-1.4263 6.0652M366.5475 439.4241l-.5494 4.312M366.1812 442.3099c-.716 1.0378-2.5917 1.959-3.1244 1.0378" stroke-width=".859629942"/></g><path fill="none" stroke="#000" stroke-width=".859629942" d="M349.7433 439.4241l.7326 5.5551s2.7026-.2053 3.0245-.7159c.555-.8324 2.2642-2.4307-.4884-2.858.1665.0555 1.5928-2.514-.3884-2.514-.8824 0-2.8803.5328-2.8803.5328zM350.2983 441.594l2.7137-.1832"/><g fill="none" stroke="#000" stroke-width=".1549"><path d="M353.6835 407.6195l.7104 5.5495s2.697-.1664 3.0689-.6937c.5328-.838 2.242-2.414-.5716-2.8802.161.0555 1.6538-2.5361-.3274-2.5361-.899 0-2.8803.5605-2.8803.5605zM354.2385 409.8226l2.6527-.2275" stroke-width=".859629942"/></g><path fill="none" stroke="#000" stroke-width=".859629942" d="M418.9632 379.6995c.1776-.0555.1166-2.98-1.5983-1.9645-.7769.4939-2.1643 1.9645-2.1643 1.9645l3.5129 4.3898"/><path fill="none" stroke="#000" stroke-width=".859629942" d="M416.7989 381.2756l2.1699-1.5705s.9989-.4662 2.4917 1.5705"/><g fill="none" stroke="#000" stroke-width=".1549"><path d="M389.6448 379.2112l-.0832 5.5551s2.7137.1998 3.141-.2442c.6327-.777 2.5473-2.1033-.1665-2.958.1832.0667 2.0034-2.242 0-2.4861-.8712-.1332-2.8913.1332-2.8913.1332zM389.8668 381.3972l2.6693.1614" stroke-width=".859629942"/></g><g fill="none" stroke="#000" stroke-width=".1549"><path d="M377.8409 419.7397l-.0167 5.583s2.6527.1775 3.0412-.2942c.7159-.7381 2.6138-2.0589-.0833-2.919.161.0554 1.9646-2.2477-.0388-2.5085-.9046-.1276-2.9024.1387-2.9024.1387zM378.1072 421.9263l2.675.1831" stroke-width=".859629942"/></g><g fill="none" stroke="#000" stroke-width=".1549"><path d="M347.0906 380.8427l-3.4074-4.4008 2.5972-2.3308M345.3314 378.5336l2.4918-2.0417" stroke-width=".859629942"/></g><g fill="none" stroke="#000" stroke-width=".1549"><path d="M347.457 391.0318l-3.4297-4.4286 2.575-2.303M345.7032 388.7453l2.4918-2.0594" stroke-width=".859629942"/></g><g fill="none" stroke="#000" stroke-width=".1549"><path d="M453.3429 424.1683l-.3608 5.5218M453.3429 426.477c1.4318-.555 1.9645-1.4152 2.4973-.3608.555 1.0766.1831 3.918.1831 3.918" stroke-width=".859629942"/></g><path fill="none" stroke="#000" stroke-width=".859629942" d="M424.1465 417.0482c.2442-.555 1.2487-2.02 1.7204-.4495.161.5716-1.3874 1.8369-1.2708 2.3086h1.4872M453.2652 414.2956c.2053-.5605 1.2653-2.0422 1.6981-.455.1776.5771-1.3707 1.8369-1.2542 2.292h1.4929M455.9179 423.741c.2442-.5716 1.2653-2.0367 1.7148-.4218.1665.5494-1.343 1.8147-1.221 2.2643h1.4707"/><path stroke="#000" stroke-width=".5371993439999999" d="M352.0076 397.8966c.4661 0 .8823-.4051.8823-.8713 0-.4939-.4106-.888-.8823-.888-.505 0-.8769.3941-.8769.888.0056.4606.3719.8713.8769.8713zM403.7685 446.1224c.4883 0 .899-.405.899-.8934 0-.494-.4051-.888-.899-.888-.4717 0-.8602.394-.8602.888.0055.4883.3885.8934.8602.8934zM351.1363 411.8371c.4495 0 .8602-.3829.8602-.9378 0-.4495-.4107-.838-.8602-.838-.5328 0-.9323.3885-.9323.838-.0056.555.3995.9378.9323.9378z"/><path fill="none" stroke="#000" stroke-width=".859629942" d="M375.9984 438.1366c-1.9424 1.1266-3.18 5.3775-1.06 7.331M356.0088 372.1632l.8824 2.969M356.2419 372.857c.283-1.06 1.1432-1.8315 1.6704-.999.5328.8546.899 2.797.899 2.797M357.9123 371.858c.4884-.3052.777-.7326 1.343-.8713.5383-.1276 1.393 2.3697 1.5539 2.8802M361.897 370.2542c1.121-.5606 1.4872-.5772 2.0588.0554.5272.6549.0167 1.9646.7159 2.6139"/><path fill="none" stroke="#000" stroke-width=".859629942" d="M362.9125 373.151c.616.1665 1.2486-.1998 1.4096-.777.1554-.6381-.2054-1.2708-.7992-1.4095-.6326-.1831-1.2486.161-1.4262.7714-.1831.6382.2275 1.2708.8158 1.4151zM388.829 396.3372c-.1054.2275-.2442.4273-.3496.6992M375.721 410.9825c-.1277.2664-.2887.4884-.372.7104M382.7578 425.1728c-.1.272-.2664.4717-.3607.7214M422.5594 425.539l-4.0457-4.9335 5.1667-1.5373z"/><g><path fill="none" stroke="#000" stroke-width=".859629942" d="M446.0396 420.4168c1.2265 0 2.2032-.9823 2.2032-2.1699 0-1.2209-.9767-2.1865-2.2032-2.1865-1.2042 0-2.1699.9656-2.1699 2.1865 0 1.1932.9601 2.1699 2.17 2.1699z"/></g><g><path fill="none" stroke="#000" stroke-width=".859629942" d="M446.0396 416.188c.9379 0 1.6704-.7325 1.6704-1.6482 0-.9212-.7325-1.676-1.6704-1.676-.899 0-1.676.7548-1.676 1.676 0 .9157.7714 1.6482 1.676 1.6482z"/></g><path fill="none" stroke="#000" stroke-width=".859629942" d="M453.1042 405.3108l2.9524-1.2486"/><g fill="none" stroke="#000" stroke-width=".1549"><path d="M469.2313 402.5527l-.738 3.696M471.5621 403.0194l-.7214 3.6788M468.3711 402.3418l4.2288.5716" stroke-width=".859629942"/></g><g><path fill="none" stroke="#000" stroke-width=".859629942" d="M445.6678 404.8391c-1.0156.3053-2.12-.405-2.4918-1.5927-.3607-1.2487.1277-2.4307 1.1488-2.7803.999-.2664 2.081.4273 2.4418 1.6593.4107 1.182-.1165 2.4085-1.0988 2.7137zM443.054 400.4883l-.0777 6.4097"/></g><g fill="none" stroke="#000" stroke-width=".1549"><path d="M456.4118 416.3933l-.0222 2.9413M456.4118 417.0648c.5716-.899 1.676-1.3263 1.9368-.4273.2886.9657.061 2.7748.061 2.7748" stroke-width=".859629942"/><path d="M458.3486 416.6375c.555-.4495.6326-.666 1.615-.4495.5882.1665.5327 2.5972.3828 3.1244" stroke-width=".859629942"/></g><g><path fill="none" stroke="#000" stroke-width=".859629942" d="M453.92 384.6886c.1832 0 .3274-.1443.3274-.3108 0-.2053-.1442-.3496-.3274-.3496-.1665 0-.3052.1443-.3052.3496 0 .161.1387.3108.3052.3108z"/></g><g fill="none" stroke="#000" stroke-width=".1549"><path d="M448.9753 378.8837c-2.1698 1.0434-.6548-5.7549-.6548-5.7549M447.5047 374.211l1.4706.0161" stroke-width=".859629942"/></g></g><g><path d="M272.5709 676.713c0-17.3203 0-20.428-.222-23.9798-.222-3.7737-1.1099-5.5495-4.7726-6.3265-.888-.222-2.7748-.3385-3.7737-.3385-.444 0-.888-.222-.888-.666 0-.6659.555-.8823 1.7759-.8823 4.9946 0 11.6541.333 12.542.333 2.4419 0 8.885-.333 13.9905-.333 13.874 0 18.8741 4.6616 20.65 6.3265 2.4418 2.3308 5.5496 7.3254 5.5496 13.2135 0 15.7664-11.5487 26.4216-27.3095 26.4216-.555 0-1.7759 0-2.3308-.111-.555 0-1.221-.222-1.221-.7825 0-.888.666-.999 3.0024-.999 10.7662 0 19.2015-7.8859 19.2015-18.0971 0-3.6627-.333-11.1047-6.2155-17.0983-5.8825-5.9935-12.653-5.5495-15.2114-5.5495-1.8868 0-3.7737.222-4.7726.666-.666.2219-.888.9988-.888 2.1088v45.6286c0 10.6607 0 19.429.555 24.0907.333 3.2188.999 5.6661 4.3287 6.1101 1.5539.222 3.9957.444 4.9946.444.666 0 .888.333.888.666 0 .5549-.555.8878-1.776.8878-6.1045 0-13.097-.3385-13.6519-.3385-.333 0-7.3254.3385-10.6552.3385-1.2209 0-1.7758-.222-1.7758-.8879 0-.3385.222-.666.8879-.666.999 0 2.3308-.222 3.3353-.4439 2.2198-.444 2.7748-2.8913 3.2187-6.11.555-4.6617.555-13.43.555-24.0908V676.713zM374.9162 642.966c24.9787 0 43.6253 15.7663 43.6253 41.6274 0 24.8676-17.5423 45.4066-44.2912 45.4066-30.4173 0-43.0759-23.6467-43.0759-43.6252 0-17.9862 13.097-43.4088 43.7418-43.4088zm2.3308 82.8164c9.9893 0 30.6393-5.7716 30.6393-38.0757 0-26.6435-16.2048-40.967-33.747-40.967-18.5412 0-32.4151 12.209-32.4151 36.5273-.0056 25.861 15.5388 42.5154 35.5228 42.5154zM451.3783 696.4695c0 16.3157.444 23.4247 2.4418 25.4226 1.7759 1.7759 4.6617 2.5528 13.319 2.5528 5.8881 0 10.7662-.111 13.4355-3.3297 1.443-1.776 2.5529-4.5507 2.8858-6.6595.111-.888.333-1.4485.999-1.4485.555 0 .6659.444.6659 1.6704 0 1.221-.777 7.8804-1.6649 11.0992-.777 2.5528-1.1099 2.9968-6.9924 2.9968-7.9914 0-13.763-.222-18.4302-.333-4.6616-.222-8.1024-.3385-11.3267-.3385-.444 0-2.3308.1165-4.5506.1165-2.2199.111-4.6617.222-6.3266.222-1.2209 0-1.7758-.222-1.7758-.888 0-.3385.222-.6659.888-.6659.9988 0 2.3307-.222 3.3297-.444 2.2198-.444 2.7748-2.8913 3.2243-6.11.555-4.6617.555-13.43.555-24.0908v-19.54c0-17.3203 0-20.428-.222-23.9798-.222-3.7737-1.11-5.5495-4.7727-6.3265-.888-.222-2.7748-.3385-3.7737-.3385-.444 0-.888-.222-.888-.666 0-.6659.555-.8823 1.776-.8823 4.9945 0 11.987.333 12.542.333.555 0 8.6629-.333 11.9926-.333 1.221 0 1.7759.2164 1.7759.8824 0 .444-.444.666-.888.666-.7769 0-2.3308.1164-3.6627.3384-3.2243.555-4.1067 2.4363-4.3287 6.3265-.222 3.5573-.222 6.6595-.222 23.9798v19.7676zM517.0853 696.2475c0 10.6607 0 19.429.555 24.0907.333 3.2188.999 5.6661 4.3287 6.1101 1.5538.222 3.9957.444 4.9946.444.666 0 .888.333.888.666 0 .5549-.555.8878-1.776.8878-6.1045 0-13.097-.3385-13.652-.3385-.5549 0-7.5473.3385-10.877.3385-1.221 0-1.776-.222-1.776-.8879 0-.3385.222-.666.888-.666.9989 0 2.3308-.222 3.3297-.4439 2.2199-.444 2.7748-2.8913 3.2243-6.11.555-4.6617.555-13.43.555-24.0908v-19.54c0-17.3203 0-20.428-.222-23.9798-.222-3.7737-1.3319-5.6606-3.7737-6.2155-1.221-.333-2.6638-.444-3.4408-.444-.444 0-.8879-.222-.8879-.666 0-.6659.555-.8823 1.7759-.8823 3.6627 0 10.6552.333 11.2157.333.5605 0 7.5474-.333 10.8772-.333 1.2209 0 1.7758.2164 1.7758.8824 0 .444-.444.6659-.888.6659-.7769 0-1.4428.1165-2.7747.3385-3.0023.555-3.8847 2.4363-4.1067 6.3265-.222 3.5573-.222 6.6595-.222 23.9798v19.5345z"/></g></svg>